<?xml version="1.0" encoding="UTF-8" standalone="no"?>
<!DOCTYPE svg PUBLIC "-//W3C//DTD SVG 1.1//EN"
 "http://www.w3.org/Graphics/SVG/1.1/DTD/svg11.dtd">
<!-- Generated by graphviz version 2.40.1 (20161225.0304)
 -->
<!-- Title: %3 Pages: 1 -->
<svg width="179pt" height="465pt"
 viewBox="0.00 0.00 179.00 465.00" xmlns="http://www.w3.org/2000/svg" xmlns:xlink="http://www.w3.org/1999/xlink">
<g id="graph0" class="graph" transform="scale(1 1) rotate(0) translate(4 461)">
<title>%3</title>
<polygon fill="#ffffff" stroke="transparent" points="-4,4 -4,-461 175,-461 175,4 -4,4"/>
<!-- q1 -->
<g id="node1" class="node">
<title>q1</title>
<ellipse fill="none" stroke="#000000" cx="27" cy="-279" rx="27" ry="18"/>
<text text-anchor="middle" x="27" y="-275.3" font-family="Times,serif" font-size="14.00" fill="#000000">q1</text>
</g>
<!-- q2 -->
<g id="node4" class="node">
<title>q2</title>
<ellipse fill="none" stroke="#000000" cx="27" cy="-192" rx="27" ry="18"/>
<text text-anchor="middle" x="27" y="-188.3" font-family="Times,serif" font-size="14.00" fill="#000000">q2</text>
</g>
<!-- q1&#45;&gt;q2 -->
<g id="edge2" class="edge">
<title>q1&#45;&gt;q2</title>
<path fill="none" stroke="#000000" d="M27,-260.9735C27,-249.1918 27,-233.5607 27,-220.1581"/>
<polygon fill="#000000" stroke="#000000" points="30.5001,-220.0033 27,-210.0034 23.5001,-220.0034 30.5001,-220.0033"/>
<text text-anchor="middle" x="99" y="-231.8" font-family="Times,serif" font-size="14.00" fill="#000000">MU?pinrequest(True,{x})</text>
</g>
<!-- q0 -->
<g id="node2" class="node">
<title>q0</title>
<ellipse fill="none" stroke="#000000" cx="27" cy="-366" rx="27" ry="18"/>
<text text-anchor="middle" x="27" y="-362.3" font-family="Times,serif" font-size="14.00" fill="#000000">q0</text>
</g>
<!-- q0&#45;&gt;q1 -->
<g id="edge1" class="edge">
<title>q0&#45;&gt;q1</title>
<path fill="none" stroke="#000000" d="M27,-347.9735C27,-336.1918 27,-320.5607 27,-307.1581"/>
<polygon fill="#000000" stroke="#000000" points="30.5001,-307.0033 27,-297.0034 23.5001,-307.0034 30.5001,-307.0033"/>
<text text-anchor="middle" x="78.5" y="-318.8" font-family="Times,serif" font-size="14.00" fill="#000000">UM!card(True,{})</text>
</g>
<!-- q3 -->
<g id="node3" class="node">
<title>q3</title>
<ellipse fill="none" stroke="#000000" cx="27" cy="-105" rx="27" ry="18"/>
<text text-anchor="middle" x="27" y="-101.3" font-family="Times,serif" font-size="14.00" fill="#000000">q3</text>
</g>
<!-- q4 -->
<g id="node5" class="node">
<title>q4</title>
<ellipse fill="none" stroke="#000000" cx="27" cy="-18" rx="27" ry="18"/>
<text text-anchor="middle" x="27" y="-14.3" font-family="Times,serif" font-size="14.00" fill="#000000">q4</text>
</g>
<!-- q3&#45;&gt;q4 -->
<g id="edge4" class="edge">
<title>q3&#45;&gt;q4</title>
<path fill="none" stroke="#000000" d="M27,-86.9735C27,-75.1918 27,-59.5607 27,-46.1581"/>
<polygon fill="#000000" stroke="#000000" points="30.5001,-46.0033 27,-36.0034 23.5001,-46.0034 30.5001,-46.0033"/>
<text text-anchor="middle" x="83" y="-57.8" font-family="Times,serif" font-size="14.00" fill="#000000">MU?menu(True,{})</text>
</g>
<!-- q2&#45;&gt;q3 -->
<g id="edge3" class="edge">
<title>q2&#45;&gt;q3</title>
<path fill="none" stroke="#000000" d="M27,-173.9735C27,-162.1918 27,-146.5607 27,-133.1581"/>
<polygon fill="#000000" stroke="#000000" points="30.5001,-133.0033 27,-123.0034 23.5001,-133.0034 30.5001,-133.0033"/>
<text text-anchor="middle" x="84.5" y="-144.8" font-family="Times,serif" font-size="14.00" fill="#000000">UM!pin(x &lt;= 30,{})</text>
</g>
<!-- 0 -->
<g id="node6" class="node">
<title>0</title>
</g>
<!-- 0&#45;&gt;q0 -->
<g id="edge5" class="edge">
<title>0&#45;&gt;q0</title>
<path fill="none" stroke="#000000" d="M27,-420.9551C27,-412.8828 27,-403.1764 27,-394.1817"/>
<polygon fill="#000000" stroke="#000000" points="30.5001,-394.0903 27,-384.0904 23.5001,-394.0904 30.5001,-394.0903"/>
</g>
</g>
</svg>
