<?xml version="1.0" encoding="UTF-8" standalone="no"?>
<!DOCTYPE svg PUBLIC "-//W3C//DTD SVG 1.1//EN"
 "http://www.w3.org/Graphics/SVG/1.1/DTD/svg11.dtd">
<!-- Generated by graphviz version 2.38.0 (20140413.2041)
 -->
<!-- Title: %3 Pages: 1 -->
<svg width="712pt" height="726pt"
 viewBox="0.00 0.00 712.00 726.00" xmlns="http://www.w3.org/2000/svg" xmlns:xlink="http://www.w3.org/1999/xlink">
<g id="graph0" class="graph" transform="scale(1 1) rotate(0) translate(4 722)">
<title>%3</title>
<polygon fill="white" stroke="none" points="-4,4 -4,-722 708,-722 708,4 -4,4"/>
<!-- preApprovalApplication -->
<g id="node1" class="node"><title>preApprovalApplication</title>
<ellipse fill="none" stroke="black" cx="159" cy="-453" rx="121.578" ry="18"/>
<text text-anchor="middle" x="159" y="-449.3" font-family="Times,serif" font-size="14.00">preApprovalApplication</text>
</g>
<!-- applicationRejected -->
<g id="node6" class="node"><title>applicationRejected</title>
<ellipse fill="none" stroke="black" cx="111" cy="-18" rx="103.182" ry="18"/>
<text text-anchor="middle" x="111" y="-14.3" font-family="Times,serif" font-size="14.00">applicationRejected</text>
</g>
<!-- preApprovalApplication&#45;&gt;applicationRejected -->
<g id="edge4" class="edge"><title>preApprovalApplication&#45;&gt;applicationRejected</title>
<path fill="none" stroke="black" d="M79.0342,-439.417C39.4401,-428.149 0,-406.909 0,-367 0,-367 0,-367 0,-104 0,-73.1432 27.3736,-51.9715 54.9335,-38.4752"/>
<polygon fill="black" stroke="black" points="56.6262,-41.5491 64.2477,-34.1895 53.7002,-35.1899 56.6262,-41.5491"/>
<text text-anchor="middle" x="67.5" y="-231.8" font-family="Times,serif" font-size="14.00">SC!reject(True,{})</text>
</g>
<!-- creditApproved -->
<g id="node7" class="node"><title>creditApproved</title>
<ellipse fill="none" stroke="black" cx="159" cy="-366" rx="83.3857" ry="18"/>
<text text-anchor="middle" x="159" y="-362.3" font-family="Times,serif" font-size="14.00">creditApproved</text>
</g>
<!-- preApprovalApplication&#45;&gt;creditApproved -->
<g id="edge5" class="edge"><title>preApprovalApplication&#45;&gt;creditApproved</title>
<path fill="none" stroke="black" d="M159,-434.799C159,-423.163 159,-407.548 159,-394.237"/>
<polygon fill="black" stroke="black" points="162.5,-394.175 159,-384.175 155.5,-394.175 162.5,-394.175"/>
<text text-anchor="middle" x="243" y="-405.8" font-family="Times,serif" font-size="14.00">SC!approved(True,{x})</text>
</g>
<!-- vehicleSelection -->
<g id="node2" class="node"><title>vehicleSelection</title>
<ellipse fill="none" stroke="black" cx="291" cy="-279" rx="87.1846" ry="18"/>
<text text-anchor="middle" x="291" y="-275.3" font-family="Times,serif" font-size="14.00">vehicleSelection</text>
</g>
<!-- cancelled -->
<g id="node10" class="node"><title>cancelled</title>
<ellipse fill="none" stroke="black" cx="228" cy="-105" rx="55.4913" ry="18"/>
<text text-anchor="middle" x="228" y="-101.3" font-family="Times,serif" font-size="14.00">cancelled</text>
</g>
<!-- vehicleSelection&#45;&gt;cancelled -->
<g id="edge9" class="edge"><title>vehicleSelection&#45;&gt;cancelled</title>
<path fill="none" stroke="black" d="M262.32,-261.843C244.498,-250.041 223.116,-232.24 213,-210 201.785,-185.344 208.626,-154.302 216.35,-132.577"/>
<polygon fill="black" stroke="black" points="219.703,-133.609 220.019,-123.018 213.168,-131.1 219.703,-133.609"/>
<text text-anchor="middle" x="283.5" y="-188.3" font-family="Times,serif" font-size="14.00">CS?cancel(True,{})</text>
</g>
<!-- paymentEstimation -->
<g id="node11" class="node"><title>paymentEstimation</title>
<ellipse fill="none" stroke="black" cx="465" cy="-192" rx="102.082" ry="18"/>
<text text-anchor="middle" x="465" y="-188.3" font-family="Times,serif" font-size="14.00">paymentEstimation</text>
</g>
<!-- vehicleSelection&#45;&gt;paymentEstimation -->
<g id="edge8" class="edge"><title>vehicleSelection&#45;&gt;paymentEstimation</title>
<path fill="none" stroke="black" d="M272.762,-261.131C263.864,-250.873 256.692,-237.888 265,-228 268.901,-223.357 326.414,-213.59 378.766,-205.551"/>
<polygon fill="black" stroke="black" points="379.45,-208.987 388.808,-204.02 378.395,-202.067 379.45,-208.987"/>
<text text-anchor="middle" x="378.5" y="-231.8" font-family="Times,serif" font-size="14.00">CS?estimatePayment(True,{x})</text>
</g>
<!-- creditExpired -->
<g id="node3" class="node"><title>creditExpired</title>
<ellipse fill="none" stroke="black" cx="103" cy="-279" rx="75.2868" ry="18"/>
<text text-anchor="middle" x="103" y="-275.3" font-family="Times,serif" font-size="14.00">creditExpired</text>
</g>
<!-- logged -->
<g id="node4" class="node"><title>logged</title>
<ellipse fill="none" stroke="black" cx="362" cy="-540" rx="42.4939" ry="18"/>
<text text-anchor="middle" x="362" y="-536.3" font-family="Times,serif" font-size="14.00">logged</text>
</g>
<!-- logged&#45;&gt;preApprovalApplication -->
<g id="edge2" class="edge"><title>logged&#45;&gt;preApprovalApplication</title>
<path fill="none" stroke="black" d="M332.915,-526.822C300.169,-513.11 246.442,-490.614 207.357,-474.248"/>
<polygon fill="black" stroke="black" points="208.334,-470.863 197.758,-470.229 205.63,-477.319 208.334,-470.863"/>
<text text-anchor="middle" x="364.5" y="-492.8" font-family="Times,serif" font-size="14.00">CS?preApproval(True,{})</text>
</g>
<!-- logged&#45;&gt;vehicleSelection -->
<g id="edge3" class="edge"><title>logged&#45;&gt;vehicleSelection</title>
<path fill="none" stroke="black" d="M402.404,-534.343C422.664,-529.875 445.84,-521.126 460,-504 514.068,-438.604 541.472,-380.06 487,-315 473.439,-298.803 428.146,-290.094 384.514,-285.415"/>
<polygon fill="black" stroke="black" points="384.665,-281.912 374.364,-284.393 383.964,-288.877 384.665,-281.912"/>
<text text-anchor="middle" x="609.5" y="-405.8" font-family="Times,serif" font-size="14.00">CS?selectVehicle(True,{})</text>
</g>
<!-- creditAccepted -->
<g id="node5" class="node"><title>creditAccepted</title>
<ellipse fill="none" stroke="black" cx="425" cy="-18" rx="82.5854" ry="18"/>
<text text-anchor="middle" x="425" y="-14.3" font-family="Times,serif" font-size="14.00">creditAccepted</text>
</g>
<!-- creditApproved&#45;&gt;vehicleSelection -->
<g id="edge6" class="edge"><title>creditApproved&#45;&gt;vehicleSelection</title>
<path fill="none" stroke="black" d="M223.141,-354.438C239.562,-349.252 256.182,-341.521 269,-330 275.793,-323.894 280.589,-315.305 283.928,-306.966"/>
<polygon fill="black" stroke="black" points="287.257,-308.05 287.212,-297.455 280.64,-305.765 287.257,-308.05"/>
<text text-anchor="middle" x="381.5" y="-318.8" font-family="Times,serif" font-size="14.00">CS?selectVehicle(x &lt; 30,{})</text>
</g>
<!-- creditApproved&#45;&gt;creditExpired -->
<g id="edge7" class="edge"><title>creditApproved&#45;&gt;creditExpired</title>
<path fill="none" stroke="black" d="M117.81,-350.351C109.132,-345.28 101.076,-338.627 96,-330 91.9821,-323.171 91.6742,-314.932 92.9574,-307.128"/>
<polygon fill="black" stroke="black" points="96.3906,-307.824 95.3824,-297.277 89.5935,-306.15 96.3906,-307.824"/>
<text text-anchor="middle" x="182.5" y="-318.8" font-family="Times,serif" font-size="14.00">SC!expired(x == 30,{})</text>
</g>
<!-- start -->
<g id="node8" class="node"><title>start</title>
<ellipse fill="none" stroke="black" cx="362" cy="-627" rx="33.2948" ry="18"/>
<text text-anchor="middle" x="362" y="-623.3" font-family="Times,serif" font-size="14.00">start</text>
</g>
<!-- start&#45;&gt;logged -->
<g id="edge1" class="edge"><title>start&#45;&gt;logged</title>
<path fill="none" stroke="black" d="M362,-608.799C362,-597.163 362,-581.548 362,-568.237"/>
<polygon fill="black" stroke="black" points="365.5,-568.175 362,-558.175 358.5,-568.175 365.5,-568.175"/>
<text text-anchor="middle" x="427" y="-579.8" font-family="Times,serif" font-size="14.00">CS?login(True,{})</text>
</g>
<!-- creditApplication -->
<g id="node9" class="node"><title>creditApplication</title>
<ellipse fill="none" stroke="black" cx="425" cy="-105" rx="91.784" ry="18"/>
<text text-anchor="middle" x="425" y="-101.3" font-family="Times,serif" font-size="14.00">creditApplication</text>
</g>
<!-- creditApplication&#45;&gt;creditAccepted -->
<g id="edge14" class="edge"><title>creditApplication&#45;&gt;creditAccepted</title>
<path fill="none" stroke="black" d="M425,-86.799C425,-75.1626 425,-59.5479 425,-46.2368"/>
<polygon fill="black" stroke="black" points="428.5,-46.1754 425,-36.1754 421.5,-46.1755 428.5,-46.1754"/>
<text text-anchor="middle" x="495.5" y="-57.8" font-family="Times,serif" font-size="14.00">SC!accept(True,{})</text>
</g>
<!-- creditApplication&#45;&gt;applicationRejected -->
<g id="edge13" class="edge"><title>creditApplication&#45;&gt;applicationRejected</title>
<path fill="none" stroke="black" d="M369.767,-90.5182C344.226,-84.175 313.518,-76.3935 286,-69 247.533,-58.6646 204.518,-46.3844 170.76,-36.5806"/>
<polygon fill="black" stroke="black" points="171.626,-33.1877 161.047,-33.754 169.67,-39.9088 171.626,-33.1877"/>
<text text-anchor="middle" x="353.5" y="-57.8" font-family="Times,serif" font-size="14.00">SC!reject(True,{})</text>
</g>
<!-- paymentEstimation&#45;&gt;vehicleSelection -->
<g id="edge10" class="edge"><title>paymentEstimation&#45;&gt;vehicleSelection</title>
<path fill="none" stroke="black" d="M483.767,-209.813C492.941,-220.051 500.381,-233.033 492,-243 477.879,-259.792 430.357,-268.528 385.067,-273.073"/>
<polygon fill="black" stroke="black" points="384.473,-269.613 374.844,-274.034 385.128,-276.583 384.473,-269.613"/>
<text text-anchor="middle" x="596.5" y="-231.8" font-family="Times,serif" font-size="14.00">CS?reapplication(x &lt; 30,{})</text>
</g>
<!-- paymentEstimation&#45;&gt;creditApplication -->
<g id="edge11" class="edge"><title>paymentEstimation&#45;&gt;creditApplication</title>
<path fill="none" stroke="black" d="M456.905,-173.799C451.321,-161.932 443.79,-145.928 437.446,-132.449"/>
<polygon fill="black" stroke="black" points="440.507,-130.733 433.083,-123.175 434.174,-133.714 440.507,-130.733"/>
<text text-anchor="middle" x="542" y="-144.8" font-family="Times,serif" font-size="14.00">CS?fullCredit(x &lt;= 24,{})</text>
</g>
<!-- paymentEstimation&#45;&gt;cancelled -->
<g id="edge12" class="edge"><title>paymentEstimation&#45;&gt;cancelled</title>
<path fill="none" stroke="black" d="M391.486,-179.443C336.75,-170.628 270.557,-159.434 265,-156 255.492,-150.125 247.624,-140.828 241.624,-131.835"/>
<polygon fill="black" stroke="black" points="244.468,-129.777 236.256,-123.083 238.501,-133.437 244.468,-129.777"/>
<text text-anchor="middle" x="351.5" y="-144.8" font-family="Times,serif" font-size="14.00">SC!expired(x == 30,{})</text>
</g>
<!-- 0 -->
<g id="node12" class="node"><title>0</title>
</g>
<!-- 0&#45;&gt;start -->
<g id="edge15" class="edge"><title>0&#45;&gt;start</title>
<path fill="none" stroke="black" d="M362,-681.813C362,-673.789 362,-664.047 362,-655.069"/>
<polygon fill="black" stroke="black" points="365.5,-655.029 362,-645.029 358.5,-655.029 365.5,-655.029"/>
</g>
</g>
</svg>
